# xmcd
#
# Track frame offsets:
#	150
#	22368
#	38951
#	61631
#	89075
#	109352
#	132778
#	148792
#	169701
#	184791
#
# Disc length: 2822 seconds
#
# Revision: 0
# Processed by: cddbd v1.5.2PL0 Copyright (c) Steve Scherf et al.
# Submitted via: EasyCDDAExtractor 8.0.1.1
#
DISCID=910b040a
DTITLE=Various Artist - Sauza
DYEAR=2006
DGENRE=House
TTITLE0=Jim X and Eric M - Don't You Ever Stop
TTITLE1=Rod Hanna - Seducao
TTITLE2=Bluecat - Music keep on playing (remix)
TTITLE3=K'NR - Do what you wanadoo
TTITLE4=From Sun - Madiaba
TTITLE5=Stewart and Melville - Dial L (Dirty South Mix)
TTITLE6=Rose  - It's just funky (Club edit)
TTITLE7=Gary Madbone Cooper - I love (Grey Area Dub)
TTITLE8=Accu - In the City
TTITLE9=The Henchmen - Acme Life
EXTD=
EXTT0=
EXTT1=
EXTT2=
EXTT3=
EXTT4=
EXTT5=
EXTT6=
EXTT7=
EXTT8=
EXTT9=
PLAYORDER=
